<mxfile host="www.draw.io" modified="2019-10-30T01:04:52.866Z" agent="Mozilla/5.0 (Windows NT 10.0; Win64; x64; rv:70.0) Gecko/20100101 Firefox/70.0" etag="JDmcigjtcOxusC2WFyHe" version="12.1.8" type="github" pages="1">
  <diagram id="KsGbzgoHT5X_Ue6g_nk4" name="Page-1">
    <mxGraphModel dx="1600" dy="1995" grid="1" gridSize="10" guides="1" tooltips="1" connect="1" arrows="1" fold="1" page="1" pageScale="1" pageWidth="850" pageHeight="1100" math="0" shadow="0">
      <root>
        <mxCell id="0"/>
        <mxCell id="1" parent="0"/>
        <mxCell id="Pd7MUSjjiSU6BdeKO4Gg-2" value="YELLOW" style="verticalLabelPosition=bottom;shadow=0;dashed=0;align=center;fillColor=#ffffff;html=1;verticalAlign=top;strokeWidth=1;shape=mxgraph.electrical.opto_electronics.led_2;pointerEvents=1;" vertex="1" parent="1">
          <mxGeometry x="90" y="120" width="100" height="70" as="geometry"/>
        </mxCell>
        <mxCell id="Pd7MUSjjiSU6BdeKO4Gg-3" value="GREEN" style="verticalLabelPosition=bottom;shadow=0;dashed=0;align=center;fillColor=#ffffff;html=1;verticalAlign=top;strokeWidth=1;shape=mxgraph.electrical.opto_electronics.led_2;pointerEvents=1;" vertex="1" parent="1">
          <mxGeometry x="250" y="120" width="100" height="70" as="geometry"/>
        </mxCell>
        <mxCell id="Pd7MUSjjiSU6BdeKO4Gg-4" value="RED" style="verticalLabelPosition=bottom;shadow=0;dashed=0;align=center;fillColor=#ffffff;html=1;verticalAlign=top;strokeWidth=1;shape=mxgraph.electrical.opto_electronics.led_2;pointerEvents=1;" vertex="1" parent="1">
          <mxGeometry x="410" y="120" width="100" height="70" as="geometry"/>
        </mxCell>
        <mxCell id="Pd7MUSjjiSU6BdeKO4Gg-5" value="BLUE" style="verticalLabelPosition=bottom;shadow=0;dashed=0;align=center;fillColor=#ffffff;html=1;verticalAlign=top;strokeWidth=1;shape=mxgraph.electrical.opto_electronics.led_2;pointerEvents=1;" vertex="1" parent="1">
          <mxGeometry x="570" y="120" width="100" height="70" as="geometry"/>
        </mxCell>
        <mxCell id="Pd7MUSjjiSU6BdeKO4Gg-8" value="YELLOW BUTTON" style="pointerEvents=1;verticalLabelPosition=bottom;shadow=0;dashed=0;align=center;fillColor=#ffffff;html=1;verticalAlign=top;strokeWidth=1;shape=mxgraph.electrical.electro-mechanical.push_switch_no;" vertex="1" parent="1">
          <mxGeometry x="103" y="260" width="75" height="19" as="geometry"/>
        </mxCell>
        <mxCell id="Pd7MUSjjiSU6BdeKO4Gg-9" value="GREEN BUTTON" style="pointerEvents=1;verticalLabelPosition=bottom;shadow=0;dashed=0;align=center;fillColor=#ffffff;html=1;verticalAlign=top;strokeWidth=1;shape=mxgraph.electrical.electro-mechanical.push_switch_no;" vertex="1" parent="1">
          <mxGeometry x="262.5" y="260" width="75" height="19" as="geometry"/>
        </mxCell>
        <mxCell id="Pd7MUSjjiSU6BdeKO4Gg-10" value="RED BUTTON" style="pointerEvents=1;verticalLabelPosition=bottom;shadow=0;dashed=0;align=center;fillColor=#ffffff;html=1;verticalAlign=top;strokeWidth=1;shape=mxgraph.electrical.electro-mechanical.push_switch_no;" vertex="1" parent="1">
          <mxGeometry x="425" y="260" width="75" height="19" as="geometry"/>
        </mxCell>
        <mxCell id="Pd7MUSjjiSU6BdeKO4Gg-11" value="BLUE BUTTON" style="pointerEvents=1;verticalLabelPosition=bottom;shadow=0;dashed=0;align=center;fillColor=#ffffff;html=1;verticalAlign=top;strokeWidth=1;shape=mxgraph.electrical.electro-mechanical.push_switch_no;" vertex="1" parent="1">
          <mxGeometry x="582.5" y="260" width="75" height="19" as="geometry"/>
        </mxCell>
        <mxCell id="Pd7MUSjjiSU6BdeKO4Gg-14" value="" style="pointerEvents=1;verticalLabelPosition=bottom;shadow=0;dashed=0;align=center;fillColor=#ffffff;html=1;verticalAlign=top;strokeWidth=1;shape=mxgraph.electrical.miscellaneous.terminal_board;autosize=1;" vertex="1" parent="1">
          <mxGeometry x="280" y="-160" width="40" height="120" as="geometry"/>
        </mxCell>
        <mxCell id="Pd7MUSjjiSU6BdeKO4Gg-15" value="" style="pointerEvents=1;verticalLabelPosition=bottom;shadow=0;dashed=0;align=center;fillColor=#ffffff;html=1;verticalAlign=top;strokeWidth=1;shape=mxgraph.electrical.miscellaneous.terminal_board;autosize=1;" vertex="1" parent="1">
          <mxGeometry x="440" y="-40" width="40" height="120" as="geometry"/>
        </mxCell>
        <mxCell id="Pd7MUSjjiSU6BdeKO4Gg-16" value="" style="pointerEvents=1;verticalLabelPosition=bottom;shadow=0;dashed=0;align=center;fillColor=#ffffff;html=1;verticalAlign=top;strokeWidth=1;shape=mxgraph.electrical.miscellaneous.terminal_board;autosize=1;" vertex="1" parent="1">
          <mxGeometry x="440" y="-160" width="40" height="120" as="geometry"/>
        </mxCell>
        <mxCell id="Pd7MUSjjiSU6BdeKO4Gg-17" value="" style="pointerEvents=1;verticalLabelPosition=bottom;shadow=0;dashed=0;align=center;fillColor=#ffffff;html=1;verticalAlign=top;strokeWidth=1;shape=mxgraph.electrical.miscellaneous.terminal_board;autosize=1;" vertex="1" parent="1">
          <mxGeometry x="280" y="-40" width="40" height="120" as="geometry"/>
        </mxCell>
        <mxCell id="Pd7MUSjjiSU6BdeKO4Gg-18" value="" style="pointerEvents=1;verticalLabelPosition=bottom;shadow=0;dashed=0;align=center;fillColor=#ffffff;html=1;verticalAlign=top;strokeWidth=1;shape=mxgraph.electrical.miscellaneous.terminal_board;autosize=1;" vertex="1" parent="1">
          <mxGeometry x="280" y="-400" width="40" height="120" as="geometry"/>
        </mxCell>
        <mxCell id="Pd7MUSjjiSU6BdeKO4Gg-19" value="" style="pointerEvents=1;verticalLabelPosition=bottom;shadow=0;dashed=0;align=center;fillColor=#ffffff;html=1;verticalAlign=top;strokeWidth=1;shape=mxgraph.electrical.miscellaneous.terminal_board;autosize=1;" vertex="1" parent="1">
          <mxGeometry x="440" y="-280" width="40" height="120" as="geometry"/>
        </mxCell>
        <mxCell id="Pd7MUSjjiSU6BdeKO4Gg-20" value="" style="pointerEvents=1;verticalLabelPosition=bottom;shadow=0;dashed=0;align=center;fillColor=#ffffff;html=1;verticalAlign=top;strokeWidth=1;shape=mxgraph.electrical.miscellaneous.terminal_board;autosize=1;" vertex="1" parent="1">
          <mxGeometry x="440" y="-400" width="40" height="120" as="geometry"/>
        </mxCell>
        <mxCell id="Pd7MUSjjiSU6BdeKO4Gg-21" value="" style="pointerEvents=1;verticalLabelPosition=bottom;shadow=0;dashed=0;align=center;fillColor=#ffffff;html=1;verticalAlign=top;strokeWidth=1;shape=mxgraph.electrical.miscellaneous.terminal_board;autosize=1;" vertex="1" parent="1">
          <mxGeometry x="280" y="-280" width="40" height="120" as="geometry"/>
        </mxCell>
        <mxCell id="Pd7MUSjjiSU6BdeKO4Gg-22" value="" style="pointerEvents=1;verticalLabelPosition=bottom;shadow=0;dashed=0;align=center;fillColor=#ffffff;html=1;verticalAlign=top;strokeWidth=1;shape=mxgraph.electrical.miscellaneous.terminal_board;autosize=1;" vertex="1" parent="1">
          <mxGeometry x="280" y="-520" width="40" height="120" as="geometry"/>
        </mxCell>
        <mxCell id="Pd7MUSjjiSU6BdeKO4Gg-23" value="" style="pointerEvents=1;verticalLabelPosition=bottom;shadow=0;dashed=0;align=center;fillColor=#ffffff;html=1;verticalAlign=top;strokeWidth=1;shape=mxgraph.electrical.miscellaneous.terminal_board;autosize=1;" vertex="1" parent="1">
          <mxGeometry x="440" y="-520" width="40" height="120" as="geometry"/>
        </mxCell>
      </root>
    </mxGraphModel>
  </diagram>
</mxfile>
